<svg width="19" height="18" viewBox="0 0 19 18" fill="none" xmlns="http://www.w3.org/2000/svg">
<path d="M3.3483 17.4536H8.98217V11.4902H6.95802V9.52431H8.98217V7.06689C8.98217 5.71186 10.1172 4.60948 11.5123 4.60948H14.0425V6.57541H12.0184C11.4603 6.57541 11.0063 7.01634 11.0063 7.55838V9.52431H13.9512L13.6138 11.4902H11.0063V17.4536H15.5606C16.9558 17.4536 18.0908 16.3512 18.0908 14.9962V3.13503C18.0908 1.77999 16.9558 0.677612 15.5606 0.677612H3.3483C1.95314 0.677612 0.818115 1.77999 0.818115 3.13503V14.9962C0.818115 16.3512 1.95314 17.4536 3.3483 17.4536ZM1.83019 3.13503C1.83019 2.32203 2.51123 1.66058 3.3483 1.66058H15.5606C16.3977 1.66058 17.0787 2.32203 17.0787 3.13503V14.9962C17.0787 15.8092 16.3977 16.4706 15.5606 16.4706H12.0184V12.4732H14.4712L15.1459 8.54134H12.0184V7.55838H15.0546V3.62651H11.5123C9.5591 3.62651 7.97009 5.16982 7.97009 7.06689V8.54134H5.94595V12.4732H7.97009V16.4706H3.3483C2.51123 16.4706 1.83019 15.8092 1.83019 14.9962V3.13503Z" fill="white"/>
</svg>
