<svg width="18" height="17" viewBox="0 0 18 17" fill="none" xmlns="http://www.w3.org/2000/svg">
<path d="M3.07559 16.8944H15.2879C16.6831 16.8944 17.8181 15.792 17.8181 14.4369V2.57582C17.8181 1.22079 16.6831 0.118408 15.2879 0.118408H3.07559C1.68043 0.118408 0.54541 1.22079 0.54541 2.57582V14.4369C0.54541 15.792 1.68043 16.8944 3.07559 16.8944ZM1.55748 2.57582C1.55748 1.76283 2.23852 1.10137 3.07559 1.10137H15.2879C16.125 1.10137 16.806 1.76283 16.806 2.57582V14.4369C16.806 15.2499 16.125 15.9114 15.2879 15.9114H3.07559C2.23852 15.9114 1.55748 15.2499 1.55748 14.4369V2.57582Z" fill="white"/>
<path d="M9.18176 12.9297C11.693 12.9297 13.7361 10.9453 13.7361 8.50636C13.7361 6.06737 11.693 4.08301 9.18176 4.08301C6.67056 4.08301 4.62744 6.06737 4.62744 8.50636C4.62744 10.9453 6.67056 12.9297 9.18176 12.9297ZM9.18176 5.06597C11.135 5.06597 12.724 6.60928 12.724 8.50636C12.724 10.4034 11.135 11.9467 9.18176 11.9467C7.22852 11.9467 5.63951 10.4034 5.63951 8.50636C5.63951 6.60928 7.22852 5.06597 9.18176 5.06597Z" fill="white"/>
<path d="M13.9546 4.82742C14.7817 4.82742 15.4546 4.17386 15.4546 3.37056C15.4546 2.56726 14.7817 1.9137 13.9546 1.9137C13.1275 1.9137 12.4546 2.56726 12.4546 3.37056C12.4546 4.17386 13.1275 4.82742 13.9546 4.82742ZM13.9546 2.88494C14.2302 2.88494 14.4546 3.10284 14.4546 3.37056C14.4546 3.63828 14.2302 3.85618 13.9546 3.85618C13.6789 3.85618 13.4546 3.63828 13.4546 3.37056C13.4546 3.10284 13.6789 2.88494 13.9546 2.88494Z" fill="white"/>
</svg>
