<svg width="18" height="15" viewBox="0 0 18 15" fill="none" xmlns="http://www.w3.org/2000/svg">
<path d="M17.5454 2.62973C16.4589 2.67836 16.4826 2.67439 16.3598 2.68438L17.0033 0.899553C17.0033 0.899553 14.9947 1.61719 14.4855 1.74557C13.1482 0.578169 11.1604 0.526589 9.73927 1.37491C8.57552 2.06977 7.95088 3.26302 8.15923 4.65773C5.89432 4.35248 3.98601 3.30974 2.47937 1.55192L2.00285 0.996057L1.64678 1.63115C1.19675 2.43364 1.04731 3.35121 1.22587 4.21476C1.29914 4.56904 1.42367 4.90693 1.59617 5.22332L1.18739 5.06948L1.1389 5.73285C1.08974 6.40672 1.32075 7.19335 1.75695 7.83688C1.87977 8.01812 2.0379 8.21714 2.23834 8.41348L2.0271 8.382L2.28486 9.14213C2.62367 10.1408 3.32737 10.9135 4.24061 11.3431C3.32856 11.719 2.59177 11.9588 1.38071 12.3457L0.272705 12.6995L1.29611 13.2429C1.68631 13.4502 3.06513 14.1422 4.42747 14.3498C7.45578 14.8111 10.8653 14.4354 13.1607 12.4276C15.094 10.7365 15.7284 8.33093 15.5966 5.82756C15.5767 5.44859 15.6836 5.08688 15.8976 4.80927C16.3263 4.25341 17.5428 2.63344 17.5454 2.62973ZM15.0884 4.22052C14.733 4.68141 14.5549 5.27004 14.5868 5.87774C14.7198 8.40286 14.0124 10.3611 12.4841 11.6978C10.6989 13.2595 7.81937 13.8724 4.58416 13.3795C3.99827 13.2903 3.39274 13.0905 2.89157 12.891C3.90694 12.5517 4.69103 12.2492 5.95731 11.6671L7.72501 10.8545L5.77335 10.7332C4.8385 10.6751 4.06007 10.235 3.58158 9.5206C3.83565 9.50626 4.08063 9.46633 4.32455 9.40029L6.18595 8.89677L4.309 8.45034C3.39695 8.2334 2.87708 7.70339 2.60153 7.29689C2.42059 7.02978 2.30238 6.75613 2.23149 6.50387C2.41967 6.55289 2.63908 6.58783 2.99291 6.62187L4.73017 6.78877L3.35373 5.74591C2.36195 4.9946 1.9645 3.86586 2.25587 2.78075C5.35112 5.89886 8.98536 5.66451 9.35118 5.74693C9.27066 4.98731 9.26855 4.98552 9.24747 4.9132C8.77899 3.30475 9.80569 2.48804 10.2688 2.21158C11.236 1.63422 12.7714 1.54718 13.8349 2.49841C14.0646 2.7037 14.3752 2.78447 14.6659 2.71433C14.9268 2.65136 15.1409 2.58467 15.3506 2.5121L14.9142 3.72264L15.4713 3.72302C15.3662 3.85997 15.24 4.02392 15.0884 4.22052Z" fill="white"/>
</svg>
